{
    "asset" : {
        "generator" : "Khronos glTF Blender I/O v1.6.16",
        "version" : "2.0"
    },
    "scene" : 0,
    "scenes" : [
        {
            "name" : "Scene",
            "nodes" : [
                0,
                1,
                2,
                3
            ]
        }
    ],
    "nodes" : [
        {
            "mesh" : 0,
            "name" : "Helice_3",
            "rotation" : [
                0,
                -0.9990959763526917,
                0,
                -0.0425114743411541
            ],
            "scale" : [
                0.8897222876548767,
                1,
                0.8897222876548767
            ],
            "translation" : [
                -1.3174676895141602,
                0.3930695056915283,
                1.2753124237060547
            ]
        },
        {
            "mesh" : 1,
            "name" : "Helice_3.001",
            "rotation" : [
                0,
                -0.9990959763526917,
                0,
                -0.0425114743411541
            ],
            "scale" : [
                0.8897222876548767,
                1,
                0.8897222876548767
            ],
            "translation" : [
                -1.3174676895141602,
                0.3930695056915283,
                -1.506399393081665
            ]
        },
        {
            "mesh" : 2,
            "name" : "Helice_3.002",
            "rotation" : [
                0,
                -0.8877775073051453,
                0,
                0.4602729380130768
            ],
            "scale" : [
                0.8897222876548767,
                1,
                0.8897222876548767
            ],
            "translation" : [
                1.267887830734253,
                0.3930695056915283,
                -1.506399393081665
            ]
        },
        {
            "mesh" : 3,
            "name" : "Helice_3.003",
            "rotation" : [
                0,
                -0.9545769691467285,
                0,
                -0.29796460270881653
            ],
            "scale" : [
                0.8897222876548767,
                1,
                0.8897222876548767
            ],
            "translation" : [
                1.267887830734253,
                0.3930695056915283,
                1.2753124237060547
            ]
        }
    ],
    "materials" : [
        {
            "doubleSided" : true,
            "name" : "Helice3",
            "pbrMetallicRoughness" : {
                "baseColorFactor" : [
                    0.08269429206848145,
                    0.01893506571650505,
                    0.11068866401910782,
                    1
                ],
                "metallicFactor" : 0,
                "roughnessFactor" : 0.29104477167129517
            }
        },
        {
            "doubleSided" : true,
            "name" : "Fibra",
            "pbrMetallicRoughness" : {
                "baseColorFactor" : [
                    0.014669354073703289,
                    0.014669354073703289,
                    0.014669354073703289,
                    1
                ],
                "metallicFactor" : 0.5323383212089539,
                "roughnessFactor" : 0.2810945212841034
            }
        }
    ],
    "meshes" : [
        {
            "name" : "Plane.058",
            "primitives" : [
                {
                    "attributes" : {
                        "POSITION" : 0,
                        "NORMAL" : 1,
                        "TEXCOORD_0" : 2
                    },
                    "indices" : 3,
                    "material" : 0
                },
                {
                    "attributes" : {
                        "POSITION" : 4,
                        "NORMAL" : 5,
                        "TEXCOORD_0" : 6
                    },
                    "indices" : 7,
                    "material" : 1
                }
            ]
        },
        {
            "name" : "Plane.027",
            "primitives" : [
                {
                    "attributes" : {
                        "POSITION" : 8,
                        "NORMAL" : 9,
                        "TEXCOORD_0" : 10
                    },
                    "indices" : 11,
                    "material" : 0
                },
                {
                    "attributes" : {
                        "POSITION" : 12,
                        "NORMAL" : 13,
                        "TEXCOORD_0" : 14
                    },
                    "indices" : 15,
                    "material" : 1
                }
            ]
        },
        {
            "name" : "Plane.028",
            "primitives" : [
                {
                    "attributes" : {
                        "POSITION" : 16,
                        "NORMAL" : 17,
                        "TEXCOORD_0" : 18
                    },
                    "indices" : 19,
                    "material" : 0
                },
                {
                    "attributes" : {
                        "POSITION" : 20,
                        "NORMAL" : 21,
                        "TEXCOORD_0" : 22
                    },
                    "indices" : 23,
                    "material" : 1
                }
            ]
        },
        {
            "name" : "Plane.029",
            "primitives" : [
                {
                    "attributes" : {
                        "POSITION" : 24,
                        "NORMAL" : 25,
                        "TEXCOORD_0" : 26
                    },
                    "indices" : 27,
                    "material" : 0
                },
                {
                    "attributes" : {
                        "POSITION" : 28,
                        "NORMAL" : 29,
                        "TEXCOORD_0" : 30
                    },
                    "indices" : 31,
                    "material" : 1
                }
            ]
        }
    ],
    "accessors" : [
        {
            "bufferView" : 0,
            "componentType" : 5126,
            "count" : 380,
            "max" : [
                1.050390362739563,
                0.029163090512156487,
                1.0503909587860107
            ],
            "min" : [
                -1.0503908395767212,
                -0.035858187824487686,
                -1.0503907203674316
            ],
            "type" : "VEC3"
        },
        {
            "bufferView" : 1,
            "componentType" : 5126,
            "count" : 380,
            "type" : "VEC3"
        },
        {
            "bufferView" : 2,
            "componentType" : 5126,
            "count" : 380,
            "type" : "VEC2"
        },
        {
            "bufferView" : 3,
            "componentType" : 5123,
            "count" : 1230,
            "type" : "SCALAR"
        },
        {
            "bufferView" : 4,
            "componentType" : 5126,
            "count" : 376,
            "max" : [
                0.13982781767845154,
                0.013415065594017506,
                0.13982801139354706
            ],
            "min" : [
                -0.1398276388645172,
                -0.00952270906418562,
                -0.14987726509571075
            ],
            "type" : "VEC3"
        },
        {
            "bufferView" : 5,
            "componentType" : 5126,
            "count" : 376,
            "type" : "VEC3"
        },
        {
            "bufferView" : 6,
            "componentType" : 5126,
            "count" : 376,
            "type" : "VEC2"
        },
        {
            "bufferView" : 7,
            "componentType" : 5123,
            "count" : 1122,
            "type" : "SCALAR"
        },
        {
            "bufferView" : 8,
            "componentType" : 5126,
            "count" : 354,
            "max" : [
                1.050390362739563,
                0.029163090512156487,
                1.0503909587860107
            ],
            "min" : [
                -1.0503908395767212,
                -0.035858187824487686,
                -1.0503907203674316
            ],
            "type" : "VEC3"
        },
        {
            "bufferView" : 9,
            "componentType" : 5126,
            "count" : 354,
            "type" : "VEC3"
        },
        {
            "bufferView" : 10,
            "componentType" : 5126,
            "count" : 354,
            "type" : "VEC2"
        },
        {
            "bufferView" : 11,
            "componentType" : 5123,
            "count" : 1128,
            "type" : "SCALAR"
        },
        {
            "bufferView" : 12,
            "componentType" : 5126,
            "count" : 399,
            "max" : [
                0.14856800436973572,
                0.013415065594017506,
                0.13982801139354706
            ],
            "min" : [
                -0.14987722039222717,
                -0.00952270906418562,
                -0.14987726509571075
            ],
            "type" : "VEC3"
        },
        {
            "bufferView" : 13,
            "componentType" : 5126,
            "count" : 399,
            "type" : "VEC3"
        },
        {
            "bufferView" : 14,
            "componentType" : 5126,
            "count" : 399,
            "type" : "VEC2"
        },
        {
            "bufferView" : 15,
            "componentType" : 5123,
            "count" : 1224,
            "type" : "SCALAR"
        },
        {
            "bufferView" : 16,
            "componentType" : 5126,
            "count" : 342,
            "max" : [
                1.050390362739563,
                0.029163090512156487,
                1.0503909587860107
            ],
            "min" : [
                -1.0503908395767212,
                -0.035858187824487686,
                -1.0503907203674316
            ],
            "type" : "VEC3"
        },
        {
            "bufferView" : 17,
            "componentType" : 5126,
            "count" : 342,
            "type" : "VEC3"
        },
        {
            "bufferView" : 18,
            "componentType" : 5126,
            "count" : 342,
            "type" : "VEC2"
        },
        {
            "bufferView" : 19,
            "componentType" : 5123,
            "count" : 1074,
            "type" : "SCALAR"
        },
        {
            "bufferView" : 20,
            "componentType" : 5126,
            "count" : 412,
            "max" : [
                0.1498773992061615,
                0.013415065594017506,
                0.14311353862285614
            ],
            "min" : [
                -0.14987722039222717,
                -0.00952270906418562,
                -0.14987726509571075
            ],
            "type" : "VEC3"
        },
        {
            "bufferView" : 21,
            "componentType" : 5126,
            "count" : 412,
            "type" : "VEC3"
        },
        {
            "bufferView" : 22,
            "componentType" : 5126,
            "count" : 412,
            "type" : "VEC2"
        },
        {
            "bufferView" : 23,
            "componentType" : 5123,
            "count" : 1278,
            "type" : "SCALAR"
        },
        {
            "bufferView" : 24,
            "componentType" : 5126,
            "count" : 392,
            "max" : [
                1.050390362739563,
                0.029163090512156487,
                1.0503909587860107
            ],
            "min" : [
                -1.0503908395767212,
                -0.035858187824487686,
                -1.0503907203674316
            ],
            "type" : "VEC3"
        },
        {
            "bufferView" : 25,
            "componentType" : 5126,
            "count" : 392,
            "type" : "VEC3"
        },
        {
            "bufferView" : 26,
            "componentType" : 5126,
            "count" : 392,
            "type" : "VEC2"
        },
        {
            "bufferView" : 27,
            "componentType" : 5123,
            "count" : 1296,
            "type" : "SCALAR"
        },
        {
            "bufferView" : 28,
            "componentType" : 5126,
            "count" : 360,
            "max" : [
                0.13982781767845154,
                0.012542215175926685,
                0.13982801139354706
            ],
            "min" : [
                -0.1398276388645172,
                -0.00952270906418562,
                -0.1398276835680008
            ],
            "type" : "VEC3"
        },
        {
            "bufferView" : 29,
            "componentType" : 5126,
            "count" : 360,
            "type" : "VEC3"
        },
        {
            "bufferView" : 30,
            "componentType" : 5126,
            "count" : 360,
            "type" : "VEC2"
        },
        {
            "bufferView" : 31,
            "componentType" : 5123,
            "count" : 1056,
            "type" : "SCALAR"
        }
    ],
    "bufferViews" : [
        {
            "buffer" : 0,
            "byteLength" : 4560,
            "byteOffset" : 0
        },
        {
            "buffer" : 0,
            "byteLength" : 4560,
            "byteOffset" : 4560
        },
        {
            "buffer" : 0,
            "byteLength" : 3040,
            "byteOffset" : 9120
        },
        {
            "buffer" : 0,
            "byteLength" : 2460,
            "byteOffset" : 12160
        },
        {
            "buffer" : 0,
            "byteLength" : 4512,
            "byteOffset" : 14620
        },
        {
            "buffer" : 0,
            "byteLength" : 4512,
            "byteOffset" : 19132
        },
        {
            "buffer" : 0,
            "byteLength" : 3008,
            "byteOffset" : 23644
        },
        {
            "buffer" : 0,
            "byteLength" : 2244,
            "byteOffset" : 26652
        },
        {
            "buffer" : 0,
            "byteLength" : 4248,
            "byteOffset" : 28896
        },
        {
            "buffer" : 0,
            "byteLength" : 4248,
            "byteOffset" : 33144
        },
        {
            "buffer" : 0,
            "byteLength" : 2832,
            "byteOffset" : 37392
        },
        {
            "buffer" : 0,
            "byteLength" : 2256,
            "byteOffset" : 40224
        },
        {
            "buffer" : 0,
            "byteLength" : 4788,
            "byteOffset" : 42480
        },
        {
            "buffer" : 0,
            "byteLength" : 4788,
            "byteOffset" : 47268
        },
        {
            "buffer" : 0,
            "byteLength" : 3192,
            "byteOffset" : 52056
        },
        {
            "buffer" : 0,
            "byteLength" : 2448,
            "byteOffset" : 55248
        },
        {
            "buffer" : 0,
            "byteLength" : 4104,
            "byteOffset" : 57696
        },
        {
            "buffer" : 0,
            "byteLength" : 4104,
            "byteOffset" : 61800
        },
        {
            "buffer" : 0,
            "byteLength" : 2736,
            "byteOffset" : 65904
        },
        {
            "buffer" : 0,
            "byteLength" : 2148,
            "byteOffset" : 68640
        },
        {
            "buffer" : 0,
            "byteLength" : 4944,
            "byteOffset" : 70788
        },
        {
            "buffer" : 0,
            "byteLength" : 4944,
            "byteOffset" : 75732
        },
        {
            "buffer" : 0,
            "byteLength" : 3296,
            "byteOffset" : 80676
        },
        {
            "buffer" : 0,
            "byteLength" : 2556,
            "byteOffset" : 83972
        },
        {
            "buffer" : 0,
            "byteLength" : 4704,
            "byteOffset" : 86528
        },
        {
            "buffer" : 0,
            "byteLength" : 4704,
            "byteOffset" : 91232
        },
        {
            "buffer" : 0,
            "byteLength" : 3136,
            "byteOffset" : 95936
        },
        {
            "buffer" : 0,
            "byteLength" : 2592,
            "byteOffset" : 99072
        },
        {
            "buffer" : 0,
            "byteLength" : 4320,
            "byteOffset" : 101664
        },
        {
            "buffer" : 0,
            "byteLength" : 4320,
            "byteOffset" : 105984
        },
        {
            "buffer" : 0,
            "byteLength" : 2880,
            "byteOffset" : 110304
        },
        {
            "buffer" : 0,
            "byteLength" : 2112,
            "byteOffset" : 113184
        }
    ],
    "buffers" : [
        {
            "byteLength" : 115296,
            "uri" : "Helice3.bin"
        }
    ]
}
