{
    "asset" : {
        "generator" : "Khronos glTF Blender I/O v1.6.16",
        "version" : "2.0"
    },
    "scene" : 0,
    "scenes" : [
        {
            "name" : "Scene",
            "nodes" : [
                0
            ]
        }
    ],
    "nodes" : [
        {
            "mesh" : 0,
            "name" : "Camara1",
            "rotation" : [
                -0.7071068286895752,
                0,
                0,
                0.7071068286895752
            ],
            "scale" : [
                1.22078275680542,
                1.22078275680542,
                1.22078275680542
            ],
            "translation" : [
                -0.028493285179138184,
                -0.2937910258769989,
                0.8088617920875549
            ]
        }
    ],
    "materials" : [
        {
            "doubleSided" : true,
            "name" : "Camara",
            "pbrMetallicRoughness" : {
                "baseColorFactor" : [
                    0.04445463418960571,
                    0.04445463418960571,
                    0.04445463418960571,
                    1
                ],
                "metallicFactor" : 0,
                "roughnessFactor" : 0.5
            }
        },
        {
            "doubleSided" : true,
            "name" : "Cristal",
            "pbrMetallicRoughness" : {
                "baseColorFactor" : [
                    0.04696132242679596,
                    0.04696132242679596,
                    0.04696132242679596,
                    1
                ],
                "metallicFactor" : 0,
                "roughnessFactor" : 0
            }
        },
        {
            "doubleSided" : true,
            "name" : "Cables",
            "pbrMetallicRoughness" : {
                "baseColorFactor" : [
                    0.8000000715255737,
                    0.004939555656164885,
                    0.004939555656164885,
                    1
                ],
                "metallicFactor" : 0,
                "roughnessFactor" : 0.5
            }
        },
        {
            "doubleSided" : true,
            "name" : "Carcasa",
            "pbrMetallicRoughness" : {
                "baseColorFactor" : [
                    0.3931143581867218,
                    0.3931143581867218,
                    0.3931143581867218,
                    1
                ],
                "roughnessFactor" : 0.6343283653259277
            }
        }
    ],
    "meshes" : [
        {
            "name" : "Circle.030",
            "primitives" : [
                {
                    "attributes" : {
                        "POSITION" : 0,
                        "NORMAL" : 1,
                        "TEXCOORD_0" : 2
                    },
                    "indices" : 3,
                    "material" : 0
                },
                {
                    "attributes" : {
                        "POSITION" : 4,
                        "NORMAL" : 5,
                        "TEXCOORD_0" : 6
                    },
                    "indices" : 7,
                    "material" : 1
                },
                {
                    "attributes" : {
                        "POSITION" : 8,
                        "NORMAL" : 9,
                        "TEXCOORD_0" : 10
                    },
                    "indices" : 11,
                    "material" : 2
                },
                {
                    "attributes" : {
                        "POSITION" : 12,
                        "NORMAL" : 13,
                        "TEXCOORD_0" : 14
                    },
                    "indices" : 15,
                    "material" : 3
                }
            ]
        }
    ],
    "accessors" : [
        {
            "bufferView" : 0,
            "componentType" : 5126,
            "count" : 1696,
            "max" : [
                0.09366891533136368,
                0,
                0.09366892278194427
            ],
            "min" : [
                -0.09366892278194427,
                -0.2876586616039276,
                -0.09366893768310547
            ],
            "type" : "VEC3"
        },
        {
            "bufferView" : 1,
            "componentType" : 5126,
            "count" : 1696,
            "type" : "VEC3"
        },
        {
            "bufferView" : 2,
            "componentType" : 5126,
            "count" : 1696,
            "type" : "VEC2"
        },
        {
            "bufferView" : 3,
            "componentType" : 5123,
            "count" : 4602,
            "type" : "SCALAR"
        },
        {
            "bufferView" : 4,
            "componentType" : 5126,
            "count" : 81,
            "max" : [
                0.054125502705574036,
                -0.2029317021369934,
                0.05412549525499344
            ],
            "min" : [
                -0.054125502705574036,
                -0.22201476991176605,
                -0.05412551760673523
            ],
            "type" : "VEC3"
        },
        {
            "bufferView" : 5,
            "componentType" : 5126,
            "count" : 81,
            "type" : "VEC3"
        },
        {
            "bufferView" : 6,
            "componentType" : 5126,
            "count" : 81,
            "type" : "VEC2"
        },
        {
            "bufferView" : 7,
            "componentType" : 5123,
            "count" : 384,
            "type" : "SCALAR"
        },
        {
            "bufferView" : 8,
            "componentType" : 5126,
            "count" : 320,
            "max" : [
                0.09366891533136368,
                -0.16423682868480682,
                0.09366892278194427
            ],
            "min" : [
                -0.09366892278194427,
                -0.28058668971061707,
                -0.09366893768310547
            ],
            "type" : "VEC3"
        },
        {
            "bufferView" : 9,
            "componentType" : 5126,
            "count" : 320,
            "type" : "VEC3"
        },
        {
            "bufferView" : 10,
            "componentType" : 5126,
            "count" : 320,
            "type" : "VEC2"
        },
        {
            "bufferView" : 11,
            "componentType" : 5123,
            "count" : 1056,
            "type" : "SCALAR"
        },
        {
            "bufferView" : 12,
            "componentType" : 5126,
            "count" : 128,
            "max" : [
                0.0747535303235054,
                -0.1152959018945694,
                0.074753537774086
            ],
            "min" : [
                -0.074753537774086,
                -0.25390979647636414,
                -0.0747535452246666
            ],
            "type" : "VEC3"
        },
        {
            "bufferView" : 13,
            "componentType" : 5126,
            "count" : 128,
            "type" : "VEC3"
        },
        {
            "bufferView" : 14,
            "componentType" : 5126,
            "count" : 128,
            "type" : "VEC2"
        },
        {
            "bufferView" : 15,
            "componentType" : 5123,
            "count" : 384,
            "type" : "SCALAR"
        }
    ],
    "bufferViews" : [
        {
            "buffer" : 0,
            "byteLength" : 20352,
            "byteOffset" : 0
        },
        {
            "buffer" : 0,
            "byteLength" : 20352,
            "byteOffset" : 20352
        },
        {
            "buffer" : 0,
            "byteLength" : 13568,
            "byteOffset" : 40704
        },
        {
            "buffer" : 0,
            "byteLength" : 9204,
            "byteOffset" : 54272
        },
        {
            "buffer" : 0,
            "byteLength" : 972,
            "byteOffset" : 63476
        },
        {
            "buffer" : 0,
            "byteLength" : 972,
            "byteOffset" : 64448
        },
        {
            "buffer" : 0,
            "byteLength" : 648,
            "byteOffset" : 65420
        },
        {
            "buffer" : 0,
            "byteLength" : 768,
            "byteOffset" : 66068
        },
        {
            "buffer" : 0,
            "byteLength" : 3840,
            "byteOffset" : 66836
        },
        {
            "buffer" : 0,
            "byteLength" : 3840,
            "byteOffset" : 70676
        },
        {
            "buffer" : 0,
            "byteLength" : 2560,
            "byteOffset" : 74516
        },
        {
            "buffer" : 0,
            "byteLength" : 2112,
            "byteOffset" : 77076
        },
        {
            "buffer" : 0,
            "byteLength" : 1536,
            "byteOffset" : 79188
        },
        {
            "buffer" : 0,
            "byteLength" : 1536,
            "byteOffset" : 80724
        },
        {
            "buffer" : 0,
            "byteLength" : 1024,
            "byteOffset" : 82260
        },
        {
            "buffer" : 0,
            "byteLength" : 768,
            "byteOffset" : 83284
        }
    ],
    "buffers" : [
        {
            "byteLength" : 84052,
            "uri" : "Cam1.bin"
        }
    ]
}
