{
    "asset" : {
        "generator" : "Khronos glTF Blender I/O v1.6.16",
        "version" : "2.0"
    },
    "scene" : 0,
    "scenes" : [
        {
            "name" : "Scene",
            "nodes" : [
                0
            ]
        }
    ],
    "nodes" : [
        {
            "mesh" : 0,
            "name" : "Camara3",
            "rotation" : [
                -0.7071068286895752,
                0,
                0,
                0.7071068286895752
            ],
            "translation" : [
                -0.03739619255065918,
                -0.3107900619506836,
                0.8999878764152527
            ]
        }
    ],
    "materials" : [
        {
            "doubleSided" : true,
            "name" : "Camara",
            "pbrMetallicRoughness" : {
                "baseColorFactor" : [
                    0.04445463418960571,
                    0.04445463418960571,
                    0.04445463418960571,
                    1
                ],
                "metallicFactor" : 0,
                "roughnessFactor" : 0.5
            }
        },
        {
            "doubleSided" : true,
            "name" : "Cristal",
            "pbrMetallicRoughness" : {
                "baseColorFactor" : [
                    0.04696132242679596,
                    0.04696132242679596,
                    0.04696132242679596,
                    1
                ],
                "metallicFactor" : 0,
                "roughnessFactor" : 0
            }
        },
        {
            "doubleSided" : true,
            "name" : "Cables",
            "pbrMetallicRoughness" : {
                "baseColorFactor" : [
                    0.8000000715255737,
                    0.004939555656164885,
                    0.004939555656164885,
                    1
                ],
                "metallicFactor" : 0,
                "roughnessFactor" : 0.5
            }
        },
        {
            "doubleSided" : true,
            "name" : "Carcasa",
            "pbrMetallicRoughness" : {
                "baseColorFactor" : [
                    0.3931143581867218,
                    0.3931143581867218,
                    0.3931143581867218,
                    1
                ],
                "roughnessFactor" : 0.6343283653259277
            }
        }
    ],
    "meshes" : [
        {
            "name" : "Plane.063",
            "primitives" : [
                {
                    "attributes" : {
                        "POSITION" : 0,
                        "NORMAL" : 1,
                        "TEXCOORD_0" : 2
                    },
                    "indices" : 3,
                    "material" : 0
                },
                {
                    "attributes" : {
                        "POSITION" : 4,
                        "NORMAL" : 5,
                        "TEXCOORD_0" : 6
                    },
                    "indices" : 7,
                    "material" : 1
                },
                {
                    "attributes" : {
                        "POSITION" : 8,
                        "NORMAL" : 9,
                        "TEXCOORD_0" : 10
                    },
                    "indices" : 11,
                    "material" : 2
                },
                {
                    "attributes" : {
                        "POSITION" : 12,
                        "NORMAL" : 13,
                        "TEXCOORD_0" : 14
                    },
                    "indices" : 15,
                    "material" : 3
                }
            ]
        }
    ],
    "accessors" : [
        {
            "bufferView" : 0,
            "componentType" : 5126,
            "count" : 419,
            "max" : [
                0.21991366147994995,
                0.08928407728672028,
                0.12959472835063934
            ],
            "min" : [
                -0.21991366147994995,
                -0.10002695024013519,
                -0.12959472835063934
            ],
            "type" : "VEC3"
        },
        {
            "bufferView" : 1,
            "componentType" : 5126,
            "count" : 419,
            "type" : "VEC3"
        },
        {
            "bufferView" : 2,
            "componentType" : 5126,
            "count" : 419,
            "type" : "VEC2"
        },
        {
            "bufferView" : 3,
            "componentType" : 5123,
            "count" : 1194,
            "type" : "SCALAR"
        },
        {
            "bufferView" : 4,
            "componentType" : 5126,
            "count" : 17,
            "max" : [
                0.1655794233083725,
                -0.06708095967769623,
                0.08486168086528778
            ],
            "min" : [
                -0.15683525800704956,
                -0.0901021882891655,
                -0.017666347324848175
            ],
            "type" : "VEC3"
        },
        {
            "bufferView" : 5,
            "componentType" : 5126,
            "count" : 17,
            "type" : "VEC3"
        },
        {
            "bufferView" : 6,
            "componentType" : 5126,
            "count" : 17,
            "type" : "VEC2"
        },
        {
            "bufferView" : 7,
            "componentType" : 5123,
            "count" : 21,
            "type" : "SCALAR"
        },
        {
            "bufferView" : 8,
            "componentType" : 5126,
            "count" : 61,
            "max" : [
                0.19640734791755676,
                -0.10002695024013519,
                0.11168508231639862
            ],
            "min" : [
                -0.0263688825070858,
                -0.10002695024013519,
                -0.044537439942359924
            ],
            "type" : "VEC3"
        },
        {
            "bufferView" : 9,
            "componentType" : 5126,
            "count" : 61,
            "type" : "VEC3"
        },
        {
            "bufferView" : 10,
            "componentType" : 5126,
            "count" : 61,
            "type" : "VEC2"
        },
        {
            "bufferView" : 11,
            "componentType" : 5123,
            "count" : 90,
            "type" : "SCALAR"
        },
        {
            "bufferView" : 12,
            "componentType" : 5126,
            "count" : 239,
            "max" : [
                0.22809964418411255,
                0.10002695024013519,
                0.12959472835063934
            ],
            "min" : [
                -0.22809964418411255,
                -0.10002695024013519,
                -0.12959471344947815
            ],
            "type" : "VEC3"
        },
        {
            "bufferView" : 13,
            "componentType" : 5126,
            "count" : 239,
            "type" : "VEC3"
        },
        {
            "bufferView" : 14,
            "componentType" : 5126,
            "count" : 239,
            "type" : "VEC2"
        },
        {
            "bufferView" : 15,
            "componentType" : 5123,
            "count" : 489,
            "type" : "SCALAR"
        }
    ],
    "bufferViews" : [
        {
            "buffer" : 0,
            "byteLength" : 5028,
            "byteOffset" : 0
        },
        {
            "buffer" : 0,
            "byteLength" : 5028,
            "byteOffset" : 5028
        },
        {
            "buffer" : 0,
            "byteLength" : 3352,
            "byteOffset" : 10056
        },
        {
            "buffer" : 0,
            "byteLength" : 2388,
            "byteOffset" : 13408
        },
        {
            "buffer" : 0,
            "byteLength" : 204,
            "byteOffset" : 15796
        },
        {
            "buffer" : 0,
            "byteLength" : 204,
            "byteOffset" : 16000
        },
        {
            "buffer" : 0,
            "byteLength" : 136,
            "byteOffset" : 16204
        },
        {
            "buffer" : 0,
            "byteLength" : 42,
            "byteOffset" : 16340
        },
        {
            "buffer" : 0,
            "byteLength" : 732,
            "byteOffset" : 16384
        },
        {
            "buffer" : 0,
            "byteLength" : 732,
            "byteOffset" : 17116
        },
        {
            "buffer" : 0,
            "byteLength" : 488,
            "byteOffset" : 17848
        },
        {
            "buffer" : 0,
            "byteLength" : 180,
            "byteOffset" : 18336
        },
        {
            "buffer" : 0,
            "byteLength" : 2868,
            "byteOffset" : 18516
        },
        {
            "buffer" : 0,
            "byteLength" : 2868,
            "byteOffset" : 21384
        },
        {
            "buffer" : 0,
            "byteLength" : 1912,
            "byteOffset" : 24252
        },
        {
            "buffer" : 0,
            "byteLength" : 978,
            "byteOffset" : 26164
        }
    ],
    "buffers" : [
        {
            "byteLength" : 27144,
            "uri" : "Cam2.bin"
        }
    ]
}
