{
    "asset" : {
        "generator" : "Khronos glTF Blender I/O v1.6.16",
        "version" : "2.0"
    },
    "scene" : 0,
    "scenes" : [
        {
            "name" : "Scene",
            "nodes" : [
                0
            ]
        }
    ],
    "nodes" : [
        {
            "mesh" : 0,
            "name" : "Camara_2",
            "translation" : [
                0.00023577362298965454,
                -0.29727956652641296,
                0.9769376516342163
            ]
        }
    ],
    "materials" : [
        {
            "doubleSided" : true,
            "name" : "Camara",
            "pbrMetallicRoughness" : {
                "baseColorFactor" : [
                    0.04445463418960571,
                    0.04445463418960571,
                    0.04445463418960571,
                    1
                ],
                "metallicFactor" : 0,
                "roughnessFactor" : 0.5
            }
        },
        {
            "doubleSided" : true,
            "name" : "Cristal",
            "pbrMetallicRoughness" : {
                "baseColorFactor" : [
                    0.04696132242679596,
                    0.04696132242679596,
                    0.04696132242679596,
                    1
                ],
                "metallicFactor" : 0,
                "roughnessFactor" : 0
            }
        },
        {
            "doubleSided" : true,
            "name" : "Cables",
            "pbrMetallicRoughness" : {
                "baseColorFactor" : [
                    0.8000000715255737,
                    0.004939555656164885,
                    0.004939555656164885,
                    1
                ],
                "metallicFactor" : 0,
                "roughnessFactor" : 0.5
            }
        },
        {
            "doubleSided" : true,
            "name" : "Carcasa",
            "pbrMetallicRoughness" : {
                "baseColorFactor" : [
                    0.3931143581867218,
                    0.3931143581867218,
                    0.3931143581867218,
                    1
                ],
                "roughnessFactor" : 0.6343283653259277
            }
        }
    ],
    "meshes" : [
        {
            "name" : "Plane.030",
            "primitives" : [
                {
                    "attributes" : {
                        "POSITION" : 0,
                        "NORMAL" : 1,
                        "TEXCOORD_0" : 2
                    },
                    "indices" : 3,
                    "material" : 0
                },
                {
                    "attributes" : {
                        "POSITION" : 4,
                        "NORMAL" : 5,
                        "TEXCOORD_0" : 6
                    },
                    "indices" : 7,
                    "material" : 1
                },
                {
                    "attributes" : {
                        "POSITION" : 8,
                        "NORMAL" : 9,
                        "TEXCOORD_0" : 10
                    },
                    "indices" : 11,
                    "material" : 2
                },
                {
                    "attributes" : {
                        "POSITION" : 12,
                        "NORMAL" : 13,
                        "TEXCOORD_0" : 14
                    },
                    "indices" : 15,
                    "material" : 3
                }
            ]
        }
    ],
    "accessors" : [
        {
            "bufferView" : 0,
            "componentType" : 5126,
            "count" : 1361,
            "max" : [
                0.13360726833343506,
                0.13690730929374695,
                0.16985654830932617
            ],
            "min" : [
                -0.13360726833343506,
                -0.13690729439258575,
                -0.16985654830932617
            ],
            "type" : "VEC3"
        },
        {
            "bufferView" : 1,
            "componentType" : 5126,
            "count" : 1361,
            "type" : "VEC3"
        },
        {
            "bufferView" : 2,
            "componentType" : 5126,
            "count" : 1361,
            "type" : "VEC2"
        },
        {
            "bufferView" : 3,
            "componentType" : 5123,
            "count" : 3537,
            "type" : "SCALAR"
        },
        {
            "bufferView" : 4,
            "componentType" : 5126,
            "count" : 92,
            "max" : [
                0.06529857963323593,
                0.06254854798316956,
                0.1521071195602417
            ],
            "min" : [
                -0.06577000766992569,
                -0.06852003931999207,
                0.13331925868988037
            ],
            "type" : "VEC3"
        },
        {
            "bufferView" : 5,
            "componentType" : 5126,
            "count" : 92,
            "type" : "VEC3"
        },
        {
            "bufferView" : 6,
            "componentType" : 5126,
            "count" : 92,
            "type" : "VEC2"
        },
        {
            "bufferView" : 7,
            "componentType" : 5123,
            "count" : 375,
            "type" : "SCALAR"
        },
        {
            "bufferView" : 8,
            "componentType" : 5126,
            "count" : 256,
            "max" : [
                0.10268667340278625,
                0.09993603825569153,
                0.13345539569854736
            ],
            "min" : [
                -0.10315649211406708,
                -0.10590796172618866,
                0.10372042655944824
            ],
            "type" : "VEC3"
        },
        {
            "bufferView" : 9,
            "componentType" : 5126,
            "count" : 256,
            "type" : "VEC3"
        },
        {
            "bufferView" : 10,
            "componentType" : 5126,
            "count" : 256,
            "type" : "VEC2"
        },
        {
            "bufferView" : 11,
            "componentType" : 5123,
            "count" : 960,
            "type" : "SCALAR"
        },
        {
            "bufferView" : 12,
            "componentType" : 5126,
            "count" : 128,
            "max" : [
                0.08777376264333725,
                0.08502373099327087,
                0.16985654830932617
            ],
            "min" : [
                -0.08824519068002701,
                -0.09099523723125458,
                0.16985642910003662
            ],
            "type" : "VEC3"
        },
        {
            "bufferView" : 13,
            "componentType" : 5126,
            "count" : 128,
            "type" : "VEC3"
        },
        {
            "bufferView" : 14,
            "componentType" : 5126,
            "count" : 128,
            "type" : "VEC2"
        },
        {
            "bufferView" : 15,
            "componentType" : 5123,
            "count" : 192,
            "type" : "SCALAR"
        }
    ],
    "bufferViews" : [
        {
            "buffer" : 0,
            "byteLength" : 16332,
            "byteOffset" : 0
        },
        {
            "buffer" : 0,
            "byteLength" : 16332,
            "byteOffset" : 16332
        },
        {
            "buffer" : 0,
            "byteLength" : 10888,
            "byteOffset" : 32664
        },
        {
            "buffer" : 0,
            "byteLength" : 7074,
            "byteOffset" : 43552
        },
        {
            "buffer" : 0,
            "byteLength" : 1104,
            "byteOffset" : 50628
        },
        {
            "buffer" : 0,
            "byteLength" : 1104,
            "byteOffset" : 51732
        },
        {
            "buffer" : 0,
            "byteLength" : 736,
            "byteOffset" : 52836
        },
        {
            "buffer" : 0,
            "byteLength" : 750,
            "byteOffset" : 53572
        },
        {
            "buffer" : 0,
            "byteLength" : 3072,
            "byteOffset" : 54324
        },
        {
            "buffer" : 0,
            "byteLength" : 3072,
            "byteOffset" : 57396
        },
        {
            "buffer" : 0,
            "byteLength" : 2048,
            "byteOffset" : 60468
        },
        {
            "buffer" : 0,
            "byteLength" : 1920,
            "byteOffset" : 62516
        },
        {
            "buffer" : 0,
            "byteLength" : 1536,
            "byteOffset" : 64436
        },
        {
            "buffer" : 0,
            "byteLength" : 1536,
            "byteOffset" : 65972
        },
        {
            "buffer" : 0,
            "byteLength" : 1024,
            "byteOffset" : 67508
        },
        {
            "buffer" : 0,
            "byteLength" : 384,
            "byteOffset" : 68532
        }
    ],
    "buffers" : [
        {
            "byteLength" : 68916,
            "uri" : "Cam3.bin"
        }
    ]
}
